<?xml version="1.0" encoding="utf-8"?>
<!-- Generator: Adobe Illustrator 22.1.0, SVG Export Plug-In . SVG Version: 6.00 Build 0)  -->
<svg version="1.1" id="Layer_1" xmlns="http://www.w3.org/2000/svg" xmlns:xlink="http://www.w3.org/1999/xlink" x="0px" y="0px"
	 viewBox="0 0 209.7 227.3" style="enable-background:new 0 0 209.7 227.3;" xml:space="preserve">
<style type="text/css">
	.st0{fill:#488286;}
	.st1{fill:#3F3F4F;}
	.st2{fill:none;stroke:#3F3F4F;stroke-width:2;stroke-linecap:round;stroke-linejoin:round;}
</style>
<title>about-straight-bangs</title>
<g id="Layer_2_1_">
	<g id="Layer_1-2">
		<g id="Layer_1-2-2">
			<path class="st0" d="M140.2,133.6c0.5,0.8,1.1,1.6,1.5,2.4c6.7,11.6,5.4,24.9-2.9,29.7s-20.5-0.7-27.2-12.2c-1.7-3-3-6.2-3.7-9.6
				c-0.7,4.6-2.8,9.3-7.2,13.9c-9.2,9.7-23,13.9-29.4,7.8c-3.5-3.3-4.4-8.5-3.1-14.1c-12.5,12.3-19.7,21.9-21.8,40.9
				c15.7,15.4,38.1,25,63,25c33.4,0,62.3-17.3,76.4-42.6C178.4,152.4,161.4,140.9,140.2,133.6z"/>
			<path class="st1" d="M104.6,128.6c-15.6,0-30.4-7.1-40.1-19.4c-0.4-0.5-0.3-1.3,0.2-1.7c0.5-0.4,1.3-0.3,1.7,0.2c0,0,0,0,0,0
				c16.7,21.1,47.4,24.6,68.4,7.9c11.6-9.2,18.4-23.3,18.4-38.2c-0.1-0.7,0.4-1.3,1.1-1.3s1.3,0.4,1.3,1.1c0,0.1,0,0.1,0,0.2
				C155.8,105.7,132.9,128.6,104.6,128.6z"/>
			<path class="st1" d="M49.2,76c-1.2-0.9-2.2-2.2-2.7-3.6c-0.2-0.6,0.1-1.3,0.8-1.6s1.3,0.1,1.6,0.8c0.5,1.5,2.3,3.1,4.7,4
				c2.9,1.2,6.2,1.1,9-0.4c1.8-1,2.7-3.8,3.6-6.8c1.5-4.6,3.3-10.2,9.5-11.6S86.3,59,90.3,62c2.5,1.9,4.8,3.7,7,3.7
				c1.9,0,3.2-1.7,5.2-4.6c3.3-4.2,5.9-8.4,12.6-8.1c7,0.3,11.9,6.5,15.4,11.1c1.9,2.4,3.8,4.9,5,5s2.6-0.9,4.2-2.1
				c2.9-2.1,6.8-5,12.9-3.4c9.6,2.6,12.3,9.6,12.5,9.9c0.2,0.6-0.1,1.4-0.7,1.6c-0.6,0.2-1.4-0.1-1.6-0.7l0,0
				c-0.1-0.3-2.5-6.2-10.8-8.4c-5-1.4-8.1,1-10.8,3c-1.9,1.4-3.7,2.8-5.9,2.6s-4.2-2.7-6.7-5.9c-3.4-4.4-7.7-9.9-13.6-10.1
				c-5.3-0.2-7.9,3.4-10.5,7c-2.1,2.9-4,5.7-7.4,5.7c-3-0.1-5.6-2.1-8.4-4.2c-3.7-2.8-7.6-5.8-12.6-4.7s-6.3,5.5-7.7,9.9
				c-1.1,3.4-2.1,6.7-4.7,8.2c-3.4,1.8-7.5,2-11.1,0.5C51.5,77.5,50.3,76.8,49.2,76z"/>
			<path class="st1" d="M143.5,22.6c-0.1,0-0.2,0-0.3,0c-0.5-0.1-0.8-0.5-0.9-1c0-0.2-2.5-16.4-16.2-18.7s-19.6,6.5-20.8,11.4
				c-0.2,0.7-0.8,1.1-1.5,0.9c0,0,0,0,0,0c-0.7-0.2-1.1-0.8-0.9-1.5c0,0,0,0,0,0C104.2,8,111-2.2,126.4,0.4
				c6.4,1.1,11.6,5,15.1,11.4c1.2,2.2,2,4.5,2.7,6.8c2.7-2.9,8.1-7.7,12.4-4.4c0.6,0.4,0.7,1.2,0.3,1.7c0,0,0,0,0,0
				c-0.4,0.5-1.2,0.7-1.7,0.3l0,0c-3.8-2.9-10.5,5.8-10.6,5.9C144.2,22.4,143.9,22.6,143.5,22.6z"/>
			<path class="st1" d="M21.4,74.4c-0.7,0-1.2-0.5-1.2-1.2c0-0.3,0.1-0.7,0.4-0.9l0,0c0,0,0.9-1.1,0.9-4.1c-0.2-1.2-0.5-2.3-1-3.3
				c-1.8-4.5-4.4-11.3,2.7-17.3c5-4.2,12.3-3.3,18.8-2.5c5.5,0.7,10.7,1.3,13.2-1.2s2.7-5.6,2.9-9.1c0.2-4.7,0.4-10,7.2-14.5
				c11.6-7.7,26.6,0.8,27.2,1.2c0.6,0.3,0.8,1.1,0.4,1.7c-0.3,0.6-1.1,0.8-1.7,0.4c-0.1-0.1-14.3-8.1-24.6-1.3
				c-5.7,3.8-5.9,8-6.1,12.5c-0.2,3.7-0.3,7.5-3.6,10.8s-9.1,2.6-15.2,1.9c-6.3-0.8-12.8-1.6-16.9,1.9C19,54.3,21,59.7,22.7,64
				c0.6,1.3,1,2.8,1.2,4.2c0,4-1.3,5.5-1.6,5.8C22,74.3,21.7,74.4,21.4,74.4z"/>
			<path class="st1" d="M10.8,115.5c-0.2,0-0.4,0-0.5-0.1c-8.3-3.9-11.6-10.3-9.8-19C2.8,84.6,13,85.1,19,85.4
				c0.9,0,1.7,0.1,2.4,0.1c6.6,0,8.7-4.2,8.8-4.2c0.3-0.6,1-0.9,1.7-0.6c0.6,0.3,0.9,1,0.6,1.6c0,0,0,0,0,0c-0.1,0.2-2.9,5.6-11,5.6
				c-0.8,0-1.7,0-2.5-0.1c-6-0.3-14.1-0.7-16,9c-1.5,7.6,1.2,12.9,8.5,16.3c0.6,0.3,0.9,1,0.6,1.6C11.7,115.2,11.3,115.5,10.8,115.5
				L10.8,115.5z"/>
			<path class="st1" d="M16.5,127.4c-0.7,0-1.2-0.5-1.2-1.2c0-0.4,0.2-0.7,0.4-0.9c1-0.9,3.8-3.8,3.4-5.7c-0.2-1.1-1.7-1.7-2.9-2.1
				c-0.7-0.2-1-0.9-0.8-1.5s0.9-1,1.5-0.8l0,0l0,0c2.7,0.8,4.2,2.1,4.6,3.9c0.8,3.7-3.7,7.6-4.2,8.1C17,127.3,16.8,127.4,16.5,127.4
				z"/>
			<path class="st1" d="M206.8,120.1c-1.9,0-5.9-0.8-8.9-6.9c-2-4.1-0.8-7.2,0.4-10.2s2.5-6.2,0.7-10.8c-1.9-5.1-4.8-6.2-7.8-7.3
				c-2.5-0.9-5-1.8-6.9-4.9c-1.6-2.7-1.4-6.2-1-9.7c0.1-0.7,0.7-1.1,1.4-1.1c0.7,0.1,1.2,0.7,1.1,1.4c0,0,0,0,0,0l0,0
				c-0.4,3-0.6,6.1,0.6,8.1c1.4,2.3,3.3,3,5.6,3.8c3.3,1.2,7,2.6,9.3,8.7c2.1,5.6,0.6,9.3-0.8,12.6c-1.1,2.9-2.1,5.2-0.5,8.2
				c3.2,6.3,7.1,5.6,7.2,5.5c0.7-0.1,1.3,0.4,1.4,1c0.1,0.6-0.3,1.2-0.8,1.4l0,0C207.5,120.1,207.1,120.1,206.8,120.1z"/>
			<path class="st1" d="M185.8,60.9L185.8,60.9c-0.7,0-1.2-0.6-1.2-1.3l0,0c0.2-2.9-0.3-5.8-1.5-8.5c-5.7-11.5-19.6-10.4-19.8-10.4
				c-0.7,0.1-1.3-0.4-1.4-1.1c0,0,0,0,0-0.1c-0.1-0.7,0.4-1.3,1.1-1.3c0,0,0,0,0,0l0,0c0.2,0,15.7-1.2,22.2,11.8
				c1.4,3,2,6.3,1.8,9.6C187.1,60.4,186.5,61,185.8,60.9z"/>
			<path class="st1" d="M109,227.3c-47.5,0-88.6-33.1-98.8-79.4c-0.1-0.7,0.3-1.3,0.9-1.5c0.7-0.2,1.3,0.3,1.5,0.9c0,0,0,0,0,0
				c11.7,53.2,64.4,86.9,117.6,75.2c31.7-7,58-29.1,70.2-59.2c0.3-0.6,1-0.9,1.6-0.7s0.9,1,0.7,1.6l0,0l0,0
				C187.3,202.4,150.2,227.4,109,227.3z"/>
			<path class="st1" d="M205.6,152.6h-0.3c-0.7-0.2-1-0.8-0.9-1.5c1.4-5.2,2.3-10.6,2.8-16c0.1-0.7,0.7-1.2,1.3-1.1
				c0.7,0.1,1.2,0.7,1.1,1.3c0,0,0,0,0,0c-0.5,5.5-1.4,11-2.9,16.4C206.6,152.3,206.2,152.7,205.6,152.6z"/>
			<path class="st1" d="M175.5,179.9c-5.1-20-17.9-37.2-35.5-47.8c-0.6-0.4-1.4-0.2-1.7,0.4c0,0,0,0,0,0c-0.3,0.4-0.3,0.9,0,1.4
				c5.7,7.9,6.7,16.6,2.4,20.7c-5.1,4.9-15.9,2.1-24-6.3c-4.6-4.8-7.2-9.9-7.7-14.9c0,0,0-0.1,0-0.1c-0.1-0.3-0.2-0.6-0.5-0.8
				l-0.2-0.1l-0.2-0.1h-0.5l-0.2,0.1l-0.2,0.1c-0.3,0.2-0.4,0.5-0.5,0.8v0.1c-0.5,4.9-3.2,10-7.9,14.9c-8.1,8.4-18.8,11.3-24,6.3
				c-4.3-4.2-3.4-12.9,2.3-20.7c0.4-0.6,0.3-1.4-0.3-1.8c-0.4-0.3-0.9-0.3-1.4,0c-17.7,10.6-30.5,27.8-35.6,47.8
				c-0.2,0.7,0.2,1.3,0.9,1.5H41c0.6,0,1.1-0.4,1.2-0.9c4.5-17.6,15.1-33,30-43.4c-3.8,7.6-3.6,15.1,0.8,19.3c2.3,2,5.3,3.1,8.3,3
				c6,0,13.3-3.4,19.1-9.5c3.2-3.2,5.7-7,7.3-11.2c1.6,4.2,4,8,7.2,11.2c5.8,6.1,13.1,9.5,19.1,9.5c3.1,0.1,6.1-1,8.3-3
				c4.4-4.2,4.6-11.7,0.8-19.3c14.9,10.4,25.5,25.8,30,43.4c0.1,0.5,0.6,0.9,1.2,0.9h0.3c0.7-0.1,1.1-0.7,1-1.4c0,0,0,0,0,0
				L175.5,179.9z"/>
			<path class="st2" d="M104.8,194.4c-0.5-4.6-0.8-9.3-0.8-14c0-6.6,0.5-13.1,1.6-19.6"/>
			<path class="st2" d="M108,210.9c-0.6-2-1.1-4.1-1.5-6.2"/>
			<ellipse class="st2" cx="113.9" cy="168.8" rx="2.5" ry="3.1"/>
			<ellipse class="st2" cx="113.9" cy="184.9" rx="2.5" ry="3.1"/>
			<ellipse class="st2" cx="115.1" cy="199.7" rx="2.5" ry="3.1"/>
		</g>
	</g>
</g>
</svg>
