<?xml version="1.0" encoding="utf-8"?>
<!-- Generator: Adobe Illustrator 22.1.0, SVG Export Plug-In . SVG Version: 6.00 Build 0)  -->
<svg version="1.1" id="Layer_1" xmlns="http://www.w3.org/2000/svg" xmlns:xlink="http://www.w3.org/1999/xlink" x="0px" y="0px"
	 viewBox="0 0 293.7 202.2" style="enable-background:new 0 0 293.7 202.2;" xml:space="preserve">
<style type="text/css">
	.st0{fill:#488286;}
	.st1{fill:#3F3F4F;}
</style>
<title>contact</title>
<g id="Layer_2_1_">
	<g id="Layer_1-2">
		<path class="st0" d="M13.6,96.9c-0.4,0-0.8,0-1.2-0.1c-5.4-0.9-10-4.3-12.2-9.3c-0.6-1.6,0.1-3.4,1.7-4s3.4,0.1,4,1.7
			c1.4,3,4.3,5,7.5,5.5c1,0.2,3.1-5,4-7.2c2.4-6.1,5.5-13.8,12.8-13.8c6.8,0,10.6,5,14,9.5c2.4,3.2,4.7,6.2,7.5,6.6
			c2.2,0.3,3.3-1.2,5.7-5.8c1.8-3.5,4-7.8,8.7-7.8s7.7,4.1,10.4,8.1c2,2.9,4.1,6,6.6,6.8c5.8,1.9,10.6-0.2,15.7-6.9
			c1-1.4,3-1.6,4.3-0.6c1.4,1,1.6,3,0.6,4.3C97,92.7,89.4,95.7,81,92.9c-4.4-1.5-7.2-5.6-9.7-9.2c-1.8-2.6-3.8-5.5-5.3-5.5
			c-0.9,0-2.3,2.7-3.2,4.5c-2,4-5.1,10-12.1,9c-5.3-0.8-8.6-5.1-11.5-9c-3.3-4.4-5.6-7-9-7c-3.1,0-5.2,5.3-7,9.9
			C21.1,91,18.7,96.9,13.6,96.9z"/>
		<path class="st0" d="M50.6,132.6c-0.4,0-0.8,0-1.2-0.1c-5.4-0.9-10-4.3-12.2-9.3c-0.6-1.6,0.1-3.4,1.7-4s3.4,0.1,4,1.7
			c1.4,3,4.3,5,7.5,5.5c1,0.2,3.1-5,4-7.2c2.4-6.1,5.5-13.8,12.8-13.8c6.8,0,10.6,5,13.9,9.5c2.4,3.2,4.7,6.2,7.4,6.6
			c2.2,0.3,3.3-1.2,5.7-5.8c1.8-3.5,4-7.8,8.7-7.8s7.7,4.1,10.4,8.1c2,2.9,4.1,6,6.6,6.8c5.8,1.9,10.6-0.2,15.7-6.9
			c1-1.4,3-1.6,4.3-0.6c1.4,1,1.6,3,0.6,4.3l0,0c-6.6,8.8-14.2,11.9-22.6,9.1c-4.4-1.5-7.2-5.6-9.7-9.2c-1.8-2.6-3.8-5.5-5.3-5.5
			c-0.9,0-2.3,2.7-3.2,4.5c-2,4-5.1,10-12.1,9c-5.3-0.8-8.6-5.1-11.5-9c-3.3-4.4-5.6-7-9-7c-3.1,0-5.2,5.3-7,9.9
			C58.1,126.7,55.7,132.6,50.6,132.6z"/>
		<path class="st0" d="M293,54c-0.4-0.2-0.9-0.2-1.3,0.1l-66,48l-0.1,0.1c-0.7,0.2-1.4,0.3-2.2,0.3l-58-41.5c0,0,0,7,0,13v0.3
			c0,0.4,0.2,0.8,0.5,1l57.4,42.9c1.2,1.1,3.1,1.1,4.4,0l65.5-48.9c0.3-0.2,0.5-0.6,0.5-1V55.2C293.7,54.7,293.4,54.3,293,54z"/>
		<path class="st1" d="M245.1,31.7c-0.3,0-0.6-0.1-0.9-0.4c-5-5-10.6-9.5-16.6-13.4c-0.6-0.4-0.7-1.1-0.4-1.7
			c0.4-0.6,1.1-0.7,1.7-0.4l0,0c6.1,3.9,11.8,8.5,17,13.7c0.5,0.5,0.5,1.3,0,1.7C245.7,31.6,245.4,31.8,245.1,31.7L245.1,31.7z"/>
		<path class="st1" d="M83.2,61.7c-0.7,0-1.2-0.5-1.2-1.2c0-0.2,0-0.4,0.1-0.5c20.7-46.3,72.6-70.2,121.2-55.7
			c0.7,0.2,1,0.9,0.8,1.5s-0.9,1-1.5,0.8c-47.5-14.1-98,9.2-118.3,54.4C84.2,61.4,83.7,61.7,83.2,61.7z"/>
		<path class="st1" d="M92.2,158.9c-0.4,0-0.8-0.2-1-0.5c-3.9-5.6-7.2-11.6-9.8-17.9c-0.3-0.6,0-1.4,0.6-1.6c0.6-0.3,1.4,0,1.6,0.6
			c2.6,6.1,5.8,12,9.6,17.5c0.4,0.6,0.2,1.3-0.3,1.7C92.6,158.9,92.4,158.9,92.2,158.9L92.2,158.9z"/>
		<path class="st1" d="M174.5,202.2c-25.9,0-50.8-9.9-69.6-27.8c-0.5-0.5-0.5-1.3,0-1.7s1.3-0.5,1.7,0l0,0
			c38.4,36.5,98.8,36.1,136.8-0.9c0.5-0.5,1.3-0.5,1.7,0c0.5,0.5,0.5,1.3,0,1.7C226.2,192,200.9,202.3,174.5,202.2z"/>
		<path class="st1" d="M252.2,165.1c-0.7,0-1.2-0.5-1.3-1.2c0-0.3,0.1-0.6,0.3-0.8c1.9-2.3,3.7-4.8,5.3-7.2c0.4-0.6,1.1-0.7,1.7-0.3
			s0.7,1.1,0.3,1.7l0,0c-1.7,2.5-3.5,5-5.4,7.4C252.9,164.9,252.6,165.1,252.2,165.1z"/>
		<path class="st1" d="M19.8,90.1c-0.3,0-0.6,0-0.8-0.1c-4.7-0.7-8.8-3.8-10.8-8.2c-0.3-0.6,0.1-1.4,0.7-1.6
			c0.6-0.3,1.4,0.1,1.6,0.7c1.7,3.6,5,6.1,8.9,6.7c2.5,0.4,4.2-3.8,6-8.4c2.4-5.9,5-12.6,11.1-12.6c5.8,0,9.4,4.7,12.5,8.8
			c2.6,3.5,5.1,6.8,8.7,7.3s5.4-2.3,7.6-6.7c1.7-3.4,3.5-6.8,7-6.8c3.7,0,6,3.6,8.5,7.3c2.2,3.4,4.5,7,7.8,7.5
			c4.3,0.7,8.8-1.8,11.3-4.5c1.7-1.8,2.5-3.7,2.1-5.1c-0.2-0.7,0.2-1.3,0.9-1.5c0.7-0.2,1.3,0.2,1.5,0.9c0.6,2.2-0.4,4.9-2.7,7.4
			c-3,3.2-8.3,6.1-13.5,5.2c-4.3-0.7-7-4.9-9.4-8.6c-2.1-3.2-4-6.2-6.4-6.2c-2,0-3.3,2.6-4.8,5.5c-2,3.9-4.5,8.9-10.2,8.1
			c-4.5-0.7-7.5-4.5-10.3-8.2c-3-4-5.9-7.8-10.5-7.8c-4.4,0-6.6,5.6-8.8,11.1C25.6,85.2,23.6,90.1,19.8,90.1z"/>
		<path class="st1" d="M56.8,125.8c-0.3,0-0.6,0-0.8-0.1c-4.7-0.7-8.8-3.8-10.8-8.2c-0.3-0.6,0.1-1.4,0.7-1.6
			c0.6-0.3,1.4,0.1,1.6,0.7c1.7,3.6,5,6.1,8.9,6.7c2.5,0.4,4.2-3.8,6-8.4c2.3-5.9,5-12.6,11.1-12.6c5.8,0,9.4,4.7,12.5,8.8
			c2.6,3.5,5.1,6.8,8.7,7.3s5.4-2.3,7.6-6.7c1.7-3.4,3.5-6.8,7-6.8c3.7,0,6,3.6,8.5,7.3c2.2,3.4,4.5,7,7.8,7.5
			c4.3,0.7,8.8-1.8,11.3-4.5c1.7-1.8,2.5-3.7,2.1-5.1c-0.2-0.7,0.2-1.3,0.9-1.5c0.7-0.2,1.3,0.2,1.5,0.9c0.6,2.2-0.4,4.9-2.7,7.4
			c-3,3.2-8.3,6.1-13.5,5.2c-4.3-0.7-7-4.9-9.4-8.6c-2.1-3.2-4-6.2-6.4-6.2c-2,0-3.3,2.6-4.8,5.5c-2,3.9-4.5,8.8-10.2,8.1
			c-4.6-0.7-7.5-4.5-10.3-8.2c-3-4-5.9-7.8-10.5-7.8c-4.4,0-6.6,5.6-8.8,11.1C62.6,121,60.7,125.8,56.8,125.8z"/>
		<path class="st1" d="M171.2,123.6c-0.7,0-1.2-0.5-1.2-1.2c0-0.3,0.1-0.6,0.4-0.9l16.7-16.9c0.5-0.5,1.3-0.5,1.7,0
			c0.5,0.5,0.5,1.3,0,1.7l-16.7,16.9C171.9,123.5,171.6,123.6,171.2,123.6z"/>
		<path class="st1" d="M286.3,77.8c-0.7,0-1.3,0.5-1.3,1.2c0,0,0,0,0,0v52.3l-4.4-5.2c-0.4-0.5-1.2-0.6-1.7-0.2
			c-0.5,0.4-0.6,1.2-0.2,1.7l5.3,6.4c0.2,0.4,0.2,0.8,0,1.2c-0.1,0.3-0.4,0.5-0.7,0.5H161.9c-0.3,0-0.7-0.2-0.8-0.5
			c-0.1-0.2-0.1-0.5,0.1-0.7l6.5-6.5c0.5-0.5,0.5-1.3,0-1.7c-0.5-0.5-1.3-0.5-1.7,0l-6.6,6.6l-0.1,0.1c-0.8,1-0.9,2.3-0.4,3.4
			c0.5,1,1.5,1.7,2.6,1.8c0.1,0,122,0.1,122,0.1h0.8c1.8,0,3.2-1.5,3.2-3.2V79C287.5,78.3,286.9,77.8,286.3,77.8z"/>
		<path class="st1" d="M274.8,123.5c0.5,0.5,1.3,0.5,1.7,0c0.5-0.5,0.5-1.3,0-1.7l-16.1-16.1c-0.5-0.5-1.3-0.5-1.7,0
			c-0.5,0.5-0.5,1.3,0,1.7l0,0L274.8,123.5z"/>
		<path class="st1" d="M287.2,56.3c-0.3-1.1-1.3-1.9-2.4-1.9H161.3c-1.8,0-3.3,1.4-3.3,3.2c0,0,0,0,0,0v53.5c0,0.7,0.6,1.2,1.2,1.2
			s1.2-0.6,1.2-1.2l0,0V59.7l61.6,43.9c1.2,1.1,3.1,1.1,4.4,0L285,60.5v6.2c0,0.7,0.6,1.2,1.2,1.2c0.7,0,1.2-0.6,1.2-1.2v-9.1
			C287.5,57.2,287.4,56.7,287.2,56.3z M225,101.7l-0.1,0.1c-0.3,0.3-0.8,0.3-1.1,0l-0.1-0.1l-62.5-44.5c0.1-0.2,0.4-0.3,0.6-0.3
			h122.5c0.3,0,0.5,0.2,0.7,0.4c0,0.1,0.1,0.2,0.1,0.3L225,101.7z"/>
		<path class="st1" d="M159.3,116c-0.7,0-1.2,0.6-1.2,1.2v4.9c0,0.7,0.6,1.2,1.2,1.2s1.2-0.6,1.2-1.2l0,0v-4.9
			C160.5,116.6,160,116,159.3,116C159.3,116,159.3,116,159.3,116z"/>
	</g>
</g>
</svg>
