<svg xmlns="http://www.w3.org/2000/svg" viewBox="0 0 211.29 202.18"><defs><style>.cls-1{fill:#fff;}</style></defs><title>portfolio-white</title><g id="Layer_2" data-name="Layer 2"><g id="Layer_1-2" data-name="Layer 1"><g id="Layer_2-2" data-name="Layer 2"><g id="Layer_1-2-2" data-name="Layer 1-2"><polygon class="cls-1" points="128.7 169.1 69.6 169.1 72 155.5 127.5 155.5 128.7 169.1"/><path class="cls-1" d="M207.1,126.7a1.16,1.16,0,0,1-1.2-1.2v-.3a99.62,99.62,0,0,0,.3-46.7,1.26,1.26,0,0,1,.9-1.5,1.31,1.31,0,0,1,1.5.9,100.36,100.36,0,0,1-.4,47.8A1,1,0,0,1,207.1,126.7Z"/><path class="cls-1" d="M177.4,28.4a1.14,1.14,0,0,1-.8-.3,92,92,0,0,0-7.7-6.3,1.18,1.18,0,0,1-.3-1.7,1.27,1.27,0,0,1,1.7-.3h0a97.32,97.32,0,0,1,7.9,6.5,1.16,1.16,0,0,1,.1,1.7,1,1,0,0,1-.9.4Z"/><path class="cls-1" d="M47.4,24.7a1.16,1.16,0,0,1-1.2-1.2,1.39,1.39,0,0,1,.5-1,101.2,101.2,0,0,1,106-13.2,1.26,1.26,0,0,1-1,2.3,97.64,97.64,0,0,0-41.5-9.1,98.93,98.93,0,0,0-62.1,22A1.17,1.17,0,0,1,47.4,24.7Z"/><path class="cls-1" d="M201,156.7h-4.9a1.22,1.22,0,0,1-1.2-1.2,1.29,1.29,0,0,1,1.2-1.2h3.7V37.1H2.5V97.5a1.22,1.22,0,0,1-1.2,1.2A1.3,1.3,0,0,1,0,97.5V35.9a1.22,1.22,0,0,1,1.2-1.2H201a1.22,1.22,0,0,1,1.2,1.2V155.5A1.16,1.16,0,0,1,201,156.7Z"/><path class="cls-1" d="M1.2,138.2A1.22,1.22,0,0,1,0,137H0V122.2A1.22,1.22,0,0,1,1.2,121a1.29,1.29,0,0,1,1.2,1.2V137a1.1,1.1,0,0,1-1.2,1.2Z"/><path class="cls-1" d="M187.4,180.2H144.2A1.22,1.22,0,0,1,143,179V96.3a1.22,1.22,0,0,1,1.2-1.2h43.2a1.22,1.22,0,0,1,1.2,1.2v82.6a1.18,1.18,0,0,1-1.2,1.3Zm-41.9-2.5h40.7V97.5H145.5Z"/><path class="cls-1" d="M162.7,186.1a1.19,1.19,0,0,0-1.7-.4,98.28,98.28,0,0,1-30.4,11.9l-6.7-40.9h13a1.22,1.22,0,0,0,1.2-1.2,1.29,1.29,0,0,0-1.2-1.2H2.5v-9.9a1.22,1.22,0,0,0-1.2-1.2A1.3,1.3,0,0,0,0,144.4v11.1a1.22,1.22,0,0,0,1.2,1.2H77.3l-4.5,27.1a1.17,1.17,0,0,0,1,1.4H74a1.19,1.19,0,0,0,1.2-1l4.5-27.5h41.5l6.8,41.4a98.81,98.81,0,0,1-94.1-34.2,1.21,1.21,0,0,0-1.9,1.5,101.24,101.24,0,0,0,130.1,22.4,1.17,1.17,0,0,0,.6-1.7Z"/><path class="cls-1" d="M150,101.2h31.8a2,2,0,0,1,2,2V167a2,2,0,0,1-2,2H150a2,2,0,0,1-2-2V103.2A2,2,0,0,1,150,101.2Z"/><circle class="cls-1" cx="165.2" cy="174" r="2.5"/><circle class="cls-1" cx="9.9" cy="44.5" r="2.5"/><circle class="cls-1" cx="18.5" cy="44.5" r="2.5"/><circle class="cls-1" cx="27.1" cy="44.5" r="2.5"/><rect class="cls-1" x="17.3" y="58.1" width="40.7" height="12.3"/><path class="cls-1" d="M150.4,63h0Z"/><path class="cls-1" d="M182.5,64.2H118.4a1.22,1.22,0,0,1-1.2-1.2,1.29,1.29,0,0,1,1.2-1.2h64.1a1.2,1.2,0,0,1,0,2.4Z"/><path class="cls-1" d="M91.8,109.9H28.9a1.22,1.22,0,0,1-1.2-1.2,1.29,1.29,0,0,1,1.2-1.2H91.8a1.22,1.22,0,0,1,1.2,1.2A1.29,1.29,0,0,1,91.8,109.9Z"/><path class="cls-1" d="M78.8,117.3h-50a1.22,1.22,0,0,1-1.2-1.2,1.29,1.29,0,0,1,1.2-1.2h50a1.2,1.2,0,1,1,0,2.4Z"/><path class="cls-1" d="M21.9,98.8a12.25,12.25,0,0,1-1.9-.2,1.31,1.31,0,0,1-.8-1.6,1.23,1.23,0,0,1,1.4-.8c1.7.4,5-.2,8.3-1.7A8.52,8.52,0,0,1,27.2,92c-1.5-3.5-.7-7.2.2-9.6a10,10,0,0,1,2.8-4.2,6.25,6.25,0,0,1,5.6-1.3c3.4,1,4.3,4.7,4.1,7.9-.4,4.7-3.7,8-6.4,9.9h0a4.45,4.45,0,0,0,2.3.3c2.6-.2,4.7-2.2,6-3.8A9.45,9.45,0,0,0,44,87a1.38,1.38,0,0,1,.3-1.2,1.28,1.28,0,0,1,1.7-.4,2.65,2.65,0,0,1,.5.6l.5.3h5a1.2,1.2,0,0,1,1.2,1.1,8.33,8.33,0,0,1-.3,2.2,3.12,3.12,0,0,0-.2,1.5c.1.3,1.2.3,1.9-.1a14.63,14.63,0,0,0,.9-1.3c1.2-1.9,3-4.6,5.4-4,1.7.4,2.2,2,2.6,3.5.6,1.9,1,2.7,2.3,2.7a4.05,4.05,0,0,0,3-1.4,6.08,6.08,0,0,1,3.9-1.7c1.5,0,2.3,1.1,3,2s1.2,1.6,2.1,1.6h1.3c2.7,0,7.6.1,8.5-2.3a2.65,2.65,0,0,0-.7-2.8,3.78,3.78,0,0,0-3.6-1.2,1.26,1.26,0,0,1-.8-2.4h.1a6.51,6.51,0,0,1,6.1,1.8A5,5,0,0,1,90,90.9c-1.4,4.1-7.3,4-10.8,4H77.9c-2.2,0-3.2-1.5-4-2.5-.4-.5-.8-1.1-1.1-1.1a3.47,3.47,0,0,0-2.3,1.2A6.36,6.36,0,0,1,66,94.4c-3.2,0-4-2.7-4.6-4.4-.3-.8-.6-1.8-1-1.9-.8-.2-2.2,1.9-2.8,2.9a7.49,7.49,0,0,1-1.5,2c-1.5,1.1-4,1.2-5.2-.4a4.13,4.13,0,0,1-.2-3.6l.1-.3H47a2.77,2.77,0,0,1-.9-.1,14.68,14.68,0,0,1-2.4,4c-2.3,2.8-5,4.5-7.8,4.7a8.65,8.65,0,0,1-5-1.2A17.87,17.87,0,0,1,21.9,98.8ZM34.3,78.9a4.21,4.21,0,0,0-2.6,1,7.21,7.21,0,0,0-2.1,3.3c-.8,2.1-1.5,5.1-.3,7.8A7.64,7.64,0,0,0,31,93.3l.9-.6c2.3-1.7,5.1-4.4,5.4-8.2.1-.8.2-4.6-2.3-5.4A1.17,1.17,0,0,0,34.3,78.9Z"/><path class="cls-1" d="M130.7,140.7H102.3a1.22,1.22,0,0,1-1.2-1.2V127.2a1.22,1.22,0,0,1,1.2-1.2h28.4a1.22,1.22,0,0,1,1.2,1.2v12.3A1.22,1.22,0,0,1,130.7,140.7Zm-27.1-2.5h25.9v-9.9H103.6Z"/><path class="cls-1" d="M93.7,140.7H65.4a1.22,1.22,0,0,1-1.2-1.2V127.2a1.22,1.22,0,0,1,1.2-1.2H93.8a1.24,1.24,0,0,1,1.3,1.2v12.4a1.42,1.42,0,0,1-1.4,1.1Zm-27.1-2.5H92.5v-9.9H66.6Z"/><path class="cls-1" d="M56.7,140.7H28.4a1.22,1.22,0,0,1-1.2-1.2V127.2a1.22,1.22,0,0,1,1.2-1.2H56.8a1.24,1.24,0,0,1,1.3,1.2v12.4a1.42,1.42,0,0,1-1.4,1.1Zm-27.1-2.5H55.5v-9.9H29.6Z"/></g></g></g></g></svg>