<?xml version="1.0" encoding="utf-8"?>
<!-- Generator: Adobe Illustrator 22.1.0, SVG Export Plug-In . SVG Version: 6.00 Build 0)  -->
<svg version="1.1" id="Layer_1" xmlns="http://www.w3.org/2000/svg" xmlns:xlink="http://www.w3.org/1999/xlink" x="0px" y="0px"
	 viewBox="0 0 211.4 202.2" style="enable-background:new 0 0 211.4 202.2;" xml:space="preserve">
<style type="text/css">
	.st0{fill:#488286;}
	.st1{fill:#3F3F4F;}
</style>
<title>portfolio</title>
<g id="Layer_2_1_">
	<g id="Layer_1-2">
		<polygon class="st0" points="128.7,169.1 69.6,169.1 72,155.5 127.5,155.5 		"/>
		<path class="st1" d="M207.1,126.7c-0.7,0-1.2-0.5-1.2-1.2c0-0.1,0-0.2,0-0.3c3.8-15.3,3.9-31.3,0.3-46.7c-0.2-0.7,0.3-1.3,0.9-1.5
			s1.3,0.3,1.5,0.9c3.7,15.7,3.6,32.1-0.4,47.8C208.2,126.3,207.7,126.7,207.1,126.7z"/>
		<path class="st1" d="M177.4,28.4c-0.3,0-0.6-0.1-0.8-0.3c-2.5-2.2-5-4.4-7.7-6.3c-0.6-0.4-0.7-1.2-0.3-1.7s1.2-0.7,1.7-0.3l0,0
			c2.7,2,5.4,4.2,7.9,6.5c0.5,0.5,0.6,1.2,0.1,1.7C178.1,28.3,177.8,28.4,177.4,28.4L177.4,28.4z"/>
		<path class="st1" d="M47.4,24.7c-0.7,0-1.2-0.5-1.2-1.2c0-0.4,0.2-0.7,0.5-1C64.6,8,87.1,0,110.2,0c14.7,0,29.2,3.2,42.5,9.3
			c0.6,0.3,0.8,1.1,0.5,1.7c-0.3,0.5-0.9,0.8-1.5,0.6c-13-6-27.2-9.2-41.5-9.1c-22.6,0-44.5,7.8-62.1,22
			C48,24.6,47.7,24.7,47.4,24.7z"/>
		<path class="st1" d="M201,156.7h-4.9c-0.7,0-1.2-0.6-1.2-1.2s0.6-1.2,1.2-1.2h3.7V37.1H2.5v60.4c0,0.7-0.6,1.2-1.2,1.2
			S0,98.2,0,97.5V35.9c0-0.7,0.6-1.2,1.2-1.2H201c0.7,0,1.2,0.6,1.2,1.2v119.6C202.2,156.2,201.7,156.7,201,156.7z"/>
		<path class="st1" d="M1.2,138.2c-0.7,0-1.2-0.6-1.2-1.2c0,0,0,0,0,0v-14.8c0-0.7,0.6-1.2,1.2-1.2s1.2,0.6,1.2,1.2V137
			C2.5,137.7,1.9,138.2,1.2,138.2C1.2,138.2,1.2,138.2,1.2,138.2z"/>
		<path class="st1" d="M187.4,180.2h-43.2c-0.7,0-1.2-0.6-1.2-1.2V96.3c0-0.7,0.6-1.2,1.2-1.2h43.2c0.7,0,1.2,0.6,1.2,1.2v82.6
			C188.7,179.6,188.1,180.2,187.4,180.2L187.4,180.2z M145.5,177.7h40.7V97.5h-40.7L145.5,177.7z"/>
		<path class="st1" d="M162.7,186.1c-0.4-0.6-1.1-0.8-1.7-0.4c-9.4,5.6-19.7,9.7-30.4,11.9l-6.7-40.9h13c0.7,0,1.2-0.6,1.2-1.2
			s-0.6-1.2-1.2-1.2l0,0H2.5v-9.9c0-0.7-0.6-1.2-1.2-1.2S0,143.7,0,144.4v11.1c0,0.7,0.6,1.2,1.2,1.2h76.1l-4.5,27.1
			c-0.1,0.7,0.3,1.3,1,1.4h0.2c0.6,0,1.1-0.4,1.2-1l4.5-27.5h41.5l6.8,41.4c-35.3,6.5-71.3-6.6-94.1-34.2c-0.4-0.5-1.2-0.6-1.7-0.2
			c-0.5,0.4-0.6,1.2-0.2,1.7c31.8,38.6,87.1,48.1,130.1,22.4C162.9,187.5,163,186.7,162.7,186.1
			C162.7,186.2,162.7,186.2,162.7,186.1z"/>
		<path class="st0" d="M150,101.2h31.8c1.1,0,2,0.9,2,2v63.8c0,1.1-0.9,2-2,2H150c-1.1,0-2-0.9-2-2v-63.8
			C148,102.1,148.9,101.2,150,101.2z"/>
		<circle class="st1" cx="165.2" cy="174" r="2.5"/>
		<circle class="st1" cx="9.9" cy="44.5" r="2.5"/>
		<circle class="st1" cx="18.5" cy="44.5" r="2.5"/>
		<circle class="st1" cx="27.1" cy="44.5" r="2.5"/>
		<rect x="17.3" y="58.1" class="st0" width="40.7" height="12.3"/>
		<path class="st1" d="M150.4,63c17.7,0,32.1,0,32.1,0S168.1,63,150.4,63s-32.1,0-32.1,0S132.7,63,150.4,63z"/>
		<path class="st1" d="M182.5,64.2h-64.1c-0.7,0-1.2-0.6-1.2-1.2s0.6-1.2,1.2-1.2h64.1c0.7,0,1.2,0.6,1.2,1.2S183.2,64.2,182.5,64.2
			L182.5,64.2z"/>
		<path class="st1" d="M91.8,108.6L91.8,108.6z"/>
		<path class="st1" d="M91.8,109.9H28.9c-0.7,0-1.2-0.6-1.2-1.2s0.6-1.2,1.2-1.2h62.9c0.7,0,1.2,0.6,1.2,1.2S92.4,109.9,91.8,109.9z
			"/>
		<path class="st1" d="M30.1,116L30.1,116z"/>
		<path class="st1" d="M78.8,117.3h-50c-0.7,0-1.2-0.6-1.2-1.2s0.6-1.2,1.2-1.2h50c0.7,0,1.2,0.6,1.2,1.2S79.5,117.3,78.8,117.3z"/>
		<path class="st1" d="M21.9,98.8c-0.6,0-1.3-0.1-1.9-0.2c-0.6-0.2-1-0.9-0.8-1.6c0.2-0.6,0.8-0.9,1.4-0.8c1.7,0.4,5-0.2,8.3-1.7
			c-0.7-0.7-1.3-1.6-1.7-2.5c-1.5-3.5-0.7-7.2,0.2-9.6c0.6-1.6,1.5-3.1,2.8-4.2c1.5-1.3,3.6-1.8,5.6-1.3c3.4,1,4.3,4.7,4.1,7.9
			c-0.4,4.7-3.7,8-6.4,9.9l0,0c0.7,0.3,1.5,0.4,2.3,0.3c2.6-0.2,4.7-2.2,6-3.8c1.1-1.2,1.8-2.6,2.2-4.2c-0.1-0.4,0-0.8,0.3-1.2
			c0.4-0.6,1.1-0.7,1.7-0.4c0.2,0.2,0.4,0.4,0.5,0.6l0.5,0.3h5c0.6,0,1.2,0.5,1.2,1.1c0,0.7-0.1,1.5-0.3,2.2
			c-0.2,0.8-0.3,1.2-0.2,1.5s1.2,0.3,1.9-0.1c0.3-0.4,0.6-0.8,0.9-1.3c1.2-1.9,3-4.6,5.4-4c1.7,0.4,2.2,2,2.6,3.5
			c0.6,1.9,1,2.7,2.3,2.7c1.1,0,2.2-0.5,3-1.4c1-1,2.4-1.6,3.9-1.7c1.5,0,2.3,1.1,3,2s1.2,1.6,2.1,1.6h1.3c2.7,0,7.6,0.1,8.5-2.3
			c0.3-1,0.1-2.1-0.7-2.8c-0.9-1-2.3-1.5-3.6-1.2c-0.6,0.2-1.3-0.1-1.6-0.8c-0.2-0.6,0.1-1.3,0.8-1.6c0,0,0.1,0,0.1,0
			c2.2-0.5,4.6,0.2,6.1,1.8c1.5,1.4,2,3.5,1.3,5.4c-1.4,4.1-7.3,4-10.8,4h-1.3c-2.2,0-3.2-1.5-4-2.5c-0.4-0.5-0.8-1.1-1.1-1.1
			c-0.9,0.1-1.7,0.5-2.3,1.2c-1.2,1.2-2.8,1.9-4.5,1.9c-3.2,0-4-2.7-4.6-4.4c-0.3-0.8-0.6-1.8-1-1.9c-0.8-0.2-2.2,1.9-2.8,2.9
			c-0.4,0.8-0.9,1.4-1.5,2c-1.5,1.1-4,1.2-5.2-0.4c-0.6-1.1-0.7-2.4-0.2-3.6l0.1-0.3H47c-0.3,0-0.6,0-0.9-0.1
			c-0.6,1.5-1.4,2.8-2.4,4c-2.3,2.8-5,4.5-7.8,4.7c-1.8,0.1-3.5-0.3-5-1.2C28.2,97.8,25.1,98.7,21.9,98.8z M34.3,78.9
			c-0.9,0-1.9,0.4-2.6,1c-1,0.9-1.7,2-2.1,3.3c-0.8,2.1-1.5,5.1-0.3,7.8c0.4,0.9,1,1.6,1.7,2.3c0.3-0.2,0.6-0.4,0.9-0.6
			c2.3-1.7,5.1-4.4,5.4-8.2c0.1-0.8,0.2-4.6-2.3-5.4C34.9,79,34.6,78.9,34.3,78.9z"/>
		<path class="st1" d="M130.7,140.7h-28.4c-0.7,0-1.2-0.6-1.2-1.2v-12.3c0-0.7,0.6-1.2,1.2-1.2h0h28.4c0.7,0,1.2,0.6,1.2,1.2v12.3
			C131.9,140.1,131.4,140.7,130.7,140.7z M103.6,138.2h25.9v-9.9h-25.9V138.2z"/>
		<path class="st1" d="M93.7,140.7H65.4c-0.7,0-1.2-0.6-1.2-1.2v-12.3c0-0.7,0.6-1.2,1.2-1.2h0h28.4c0.7,0,1.3,0.5,1.3,1.2
			c0,0,0,0,0,0.1v12.3C95,140.1,94.5,140.7,93.7,140.7C93.8,140.7,93.7,140.7,93.7,140.7z M66.6,138.2h25.9v-9.9H66.6L66.6,138.2z"
			/>
		<path class="st1" d="M56.7,140.7H28.4c-0.7,0-1.2-0.6-1.2-1.2v-12.3c0-0.7,0.6-1.2,1.2-1.2c0,0,0,0,0,0h28.4
			c0.7,0,1.3,0.5,1.3,1.2c0,0,0,0,0,0.1v12.3C58,140.1,57.5,140.7,56.7,140.7C56.8,140.7,56.7,140.7,56.7,140.7z M29.6,138.2h25.9
			v-9.9H29.6V138.2z"/>
	</g>
</g>
</svg>
