<svg xmlns="http://www.w3.org/2000/svg" viewBox="0 0 209.66 227.29"><defs><style>.cls-1{fill:#c17c74;}.cls-2{fill:#3f3f4f;}.cls-3{fill:none;stroke:#3f3f4f;stroke-linecap:round;stroke-linejoin:round;stroke-width:2px;}</style></defs><title>about</title><g id="Layer_2" data-name="Layer 2"><g id="Layer_1-2" data-name="Layer 1"><path class="cls-1" d="M140.2,133.57c.54.77,1.06,1.56,1.54,2.4,6.71,11.57,5.43,24.85-2.87,29.66s-20.46-.67-27.17-12.25a32.29,32.29,0,0,1-3.69-9.55c-.66,4.6-2.8,9.3-7.17,13.93-9.16,9.71-23,13.89-29.45,7.83-3.46-3.27-4.39-8.49-3.1-14.13-12.48,12.3-19.7,21.85-21.75,40.92,15.66,15.39,38.09,25,63,25,33.39,0,62.3-17.32,76.45-42.58C178.41,152.36,161.45,140.89,140.2,133.57Z"/><path class="cls-2" d="M104.63,128.64a51,51,0,0,1-40.09-19.36,1.23,1.23,0,0,1,1.93-1.53,48.71,48.71,0,0,0,86.87-30.28,1.23,1.23,0,1,1,2.47,0A51.23,51.23,0,0,1,104.63,128.64Z"/><path class="cls-2" d="M43.56,102.46a7.84,7.84,0,0,1-4.35-1.15,1.23,1.23,0,1,1,1.37-2.05c1.35.9,3.7,1,6.14.23a10.58,10.58,0,0,0,6.83-5.83c.77-1.92-.26-4.67-1.34-7.57-1.68-4.49-3.77-10.07.31-15s9.64-4.88,14.64-5c3.11-.06,6.05-.11,7.77-1.4,1.52-1.14,1.48-3.35,1.28-6.86-.25-4.55-.56-10.22,4.9-14.12,5.73-4.09,13.38-2.21,19-.83,2.94.72,6,1.47,7,.81s1.5-2.36,2-4.28c.93-3.43,2.2-8.12,8-10.62,9.11-3.9,15.64-.09,15.92.08A1.23,1.23,0,0,1,131.75,31c-.24-.14-5.78-3.31-13.68.07-4.75,2-5.75,5.74-6.64,9-.63,2.3-1.22,4.48-3,5.69s-5,.5-8.92-.47c-5.41-1.33-12.13-3-16.94.45-4.36,3.12-4.11,7.62-3.87,12,.2,3.59.38,7-2.27,9-2.36,1.77-5.68,1.83-9.21,1.89-4.68.08-9.53.17-12.78,4.08s-1.5,8.23.11,12.52c1.26,3.36,2.45,6.54,1.32,9.35a13.07,13.07,0,0,1-8.38,7.27A13.22,13.22,0,0,1,43.56,102.46Z"/><path class="cls-2" d="M143.47,22.59a1.26,1.26,0,0,1-.3,0,1.24,1.24,0,0,1-.92-1c0-.16-2.53-16.4-16.25-18.69s-19.56,6.47-20.8,11.41a1.23,1.23,0,0,1-2.39-.6C104.24,8,111-2.15,126.41.41c6.44,1.07,11.65,5,15.07,11.43a32.39,32.39,0,0,1,2.67,6.82c2.68-2.91,8.09-7.68,12.4-4.45a1.23,1.23,0,0,1-1.48,2c-3.84-2.88-10.54,5.83-10.61,5.92A1.23,1.23,0,0,1,143.47,22.59Z"/><path class="cls-2" d="M21.39,74.38a1.23,1.23,0,0,1-.87-2.11h0s.87-1.08.87-4.06a12.42,12.42,0,0,0-1-3.35C18.64,60.37,16,53.58,23.06,47.55c4.95-4.24,12.33-3.31,18.84-2.48,5.48.69,10.65,1.35,13.15-1.15s2.74-5.64,2.88-9.12c.19-4.66.4-9.95,7.17-14.46,11.61-7.74,26.57.82,27.2,1.19a1.23,1.23,0,0,1-1.24,2.13c-.14-.08-14.28-8.15-24.59-1.27-5.72,3.82-5.89,8-6.07,12.51-.15,3.67-.3,7.46-3.6,10.77s-9.11,2.63-15.21,1.86c-6.3-.8-12.81-1.62-16.92,1.91-5.72,4.9-3.65,10.26-2,14.56a13.07,13.07,0,0,1,1.18,4.24c0,4-1.33,5.54-1.59,5.8A1.23,1.23,0,0,1,21.39,74.38Z"/><path class="cls-2" d="M10.8,115.47a1.22,1.22,0,0,1-.53-.12c-8.26-3.9-11.57-10.3-9.82-19C2.81,84.57,12.95,85.08,19,85.39c.87,0,1.68.09,2.38.09,6.56,0,8.74-4.21,8.76-4.25a1.23,1.23,0,1,1,2.21,1.1c-.11.23-2.9,5.61-11,5.61-.74,0-1.58,0-2.5-.09-5.95-.3-14.08-.72-16,9-1.51,7.57,1.25,12.9,8.46,16.3a1.23,1.23,0,0,1-.53,2.35Z"/><path class="cls-2" d="M16.46,127.41a1.23,1.23,0,0,1-.8-2.17c1-.87,3.78-3.77,3.37-5.67-.24-1.1-1.71-1.74-2.9-2.08a1.23,1.23,0,1,1,.68-2.37c2.67.76,4.23,2.08,4.63,3.92.8,3.68-3.66,7.63-4.17,8.06A1.22,1.22,0,0,1,16.46,127.41Z"/><path class="cls-2" d="M159.5,64.52a1.23,1.23,0,0,1-1.23-1.23,3.15,3.15,0,0,0-1.78-2.6,8.82,8.82,0,0,0-2.48-.6,24.9,24.9,0,0,1-11.22-4.41c-7.94-5.29-6.76-15.54-6.71-16a1.23,1.23,0,0,1,2.45.3c0,.09-1,9.18,5.63,13.62a22.42,22.42,0,0,0,10.22,4,10.57,10.57,0,0,1,3.21.83,5.62,5.62,0,0,1,3.15,4.8A1.23,1.23,0,0,1,159.5,64.52Z"/><path class="cls-2" d="M206.76,120.08c-1.91,0-5.85-.83-8.9-6.92-2-4.07-.77-7.21.45-10.25s2.48-6.18.73-10.83c-1.91-5.1-4.79-6.15-7.84-7.27-2.48-.91-5-1.84-6.86-4.86-1.59-2.65-1.41-6.22-1-9.67a1.25,1.25,0,0,1,1.38-1.07,1.23,1.23,0,0,1,1.07,1.38c-.38,3-.57,6.09.64,8.1,1.36,2.27,3.32,3,5.59,3.82,3.28,1.2,7,2.56,9.31,8.72,2.08,5.55.57,9.31-.76,12.62-1.15,2.88-2.07,5.15-.53,8.23,3.17,6.34,7.08,5.56,7.25,5.52a1.24,1.24,0,0,1,1.47.92,1.22,1.22,0,0,1-.89,1.48A5,5,0,0,1,206.76,120.08Z"/><path class="cls-2" d="M185.83,60.94h0a1.23,1.23,0,0,1-1.19-1.27,17.14,17.14,0,0,0-1.53-8.45c-5.73-11.45-19.62-10.43-19.76-10.42A1.21,1.21,0,0,1,162,39.67a1.23,1.23,0,0,1,1.13-1.33c.16,0,15.7-1.15,22.17,11.78a19.73,19.73,0,0,1,1.79,9.64A1.23,1.23,0,0,1,185.83,60.94Z"/><path class="cls-2" d="M108.95,227.29a101.15,101.15,0,0,1-98.79-79.45,1.23,1.23,0,0,1,2.41-.53,98.69,98.69,0,0,0,187.79,16,1.23,1.23,0,1,1,2.28.93A100.76,100.76,0,0,1,108.95,227.29Z"/><path class="cls-2" d="M205.61,152.65a1.26,1.26,0,0,1-.31,0,1.23,1.23,0,0,1-.88-1.5,98.56,98.56,0,0,0,2.78-16,1.23,1.23,0,0,1,2.46.22,101.09,101.09,0,0,1-2.85,16.44A1.23,1.23,0,0,1,205.61,152.65Z"/><path class="cls-2" d="M175.54,180A78.25,78.25,0,0,0,140,132.19a1.26,1.26,0,0,0-1.68,1.8c5.7,7.85,6.69,16.55,2.35,20.71-5.15,4.93-15.9,2.09-24-6.34-4.56-4.76-7.23-9.91-7.73-14.91a1.17,1.17,0,0,0,0-.12,1.21,1.21,0,0,0-.51-.77l-.21-.11-.23-.07-.13,0h-.25l-.13,0-.23.07-.21.11a1.21,1.21,0,0,0-.51.77,1.17,1.17,0,0,0,0,.12c-.49,4.89-3.21,10.05-7.87,14.91-8.07,8.43-18.82,11.27-24,6.34C70.31,150.54,71.3,141.83,77,134a1.26,1.26,0,0,0-1.68-1.8A78.25,78.25,0,0,0,39.75,180a1.23,1.23,0,0,0,.9,1.5,1.26,1.26,0,0,0,.3,0,1.23,1.23,0,0,0,1.2-.93,75.77,75.77,0,0,1,30-43.39c-3.8,7.57-3.64,15.06.77,19.28a11.75,11.75,0,0,0,8.34,3c6,0,13.28-3.35,19.12-9.46a32.8,32.8,0,0,0,7.3-11.2,31.91,31.91,0,0,0,7.19,11.2c5.85,6.1,13.08,9.46,19.12,9.46a11.75,11.75,0,0,0,8.34-3c4.41-4.23,4.57-11.72.77-19.28a75.76,75.76,0,0,1,30,43.39,1.23,1.23,0,0,0,1.2.93,1.26,1.26,0,0,0,.3,0A1.23,1.23,0,0,0,175.54,180Z"/><path class="cls-3" d="M104.81,194.41a121.81,121.81,0,0,1-.8-14,119.82,119.82,0,0,1,1.58-19.57"/><path class="cls-3" d="M108,210.94q-.84-3-1.52-6.25"/><ellipse class="cls-3" cx="113.88" cy="168.84" rx="2.47" ry="3.08"/><ellipse class="cls-3" cx="113.88" cy="184.87" rx="2.47" ry="3.08"/><ellipse class="cls-3" cx="115.11" cy="199.67" rx="2.47" ry="3.08"/></g></g></svg>