<svg xmlns="http://www.w3.org/2000/svg" viewBox="0 0 239.68 201.92"><defs><style>.cls-1{fill:#c17c74;}.cls-2{fill:#3f3f4f;}</style></defs><title>Asset 4</title><g id="Layer_2" data-name="Layer 2"><g id="Layer_1-2" data-name="Layer 1"><path class="cls-1" d="M219.57,36.83h16.24a2,2,0,0,1,2,2V50.76a0,0,0,0,1,0,0H217.57a0,0,0,0,1,0,0V38.83a2,2,0,0,1,2-2Z" transform="translate(119.66 -161.37) rotate(51.34)"/><path class="cls-1" d="M228.39,57.78,214.2,40l9.91-7.93a3.7,3.7,0,0,1,5.2.58l9.56,12a3.71,3.71,0,0,1-.58,5.2ZM217.67,40.43l11.1,13.88,8-6.39a1.24,1.24,0,0,0,.19-1.73l-9.56-12a1.22,1.22,0,0,0-.82-.46,1.24,1.24,0,0,0-.91.26Z"/><path class="cls-1" d="M164,30.34a59.09,59.09,0,0,0-13.56-9.7V84.92L164,74.35Z"/><path class="cls-1" d="M150.44,111.81v42.13H54.26v8.62A2.47,2.47,0,0,0,56.72,165H161.54a2.45,2.45,0,0,0,2.47-2.42V101.24Z"/><path class="cls-2" d="M121.75,108.32h-1c-2.77,0-3.49-2-4-3.5s-1-2.54-2.73-2.78c-2.31-.31-3.83.9-5.43,2.18-1.37,1.1-2.79,2.23-4.7,2.39-2.32.2-3.76-1.63-5.18-3.39s-2.82-3.53-5.06-3.54h-1c-6.5,0-12.35,8.15-12.41,8.23a1.23,1.23,0,0,1-2-1.42c.27-.38,6.64-9.28,14.43-9.28h1c3.34,0,5.29,2.45,6.86,4.4,1.31,1.63,2.19,2.62,3.18,2.53,1.22-.11,2.26-.94,3.46-1.9,1.74-1.39,3.91-3.11,7.18-2.66s4,2.67,4.59,4.29.8,2,1.85,2h1a5.75,5.75,0,0,0,5-2.52,1.23,1.23,0,0,1,2.15,1.2A8.22,8.22,0,0,1,121.75,108.32Z"/><path class="cls-2" d="M61.75,193.86a1.24,1.24,0,0,1-.49-.1A101.13,101.13,0,0,1,47,186.26a1.23,1.23,0,1,1,1.32-2.08,98.69,98.69,0,0,0,13.88,7.32,1.23,1.23,0,0,1-.49,2.37Z"/><path class="cls-2" d="M101.12,201.92a101.23,101.23,0,0,1-28-3.91,1.23,1.23,0,1,1,.68-2.37A98.73,98.73,0,0,0,199.77,100.8a100,100,0,0,0-.57-10.66,1.23,1.23,0,0,1,1.09-1.36,1.21,1.21,0,0,1,1.36,1.09,102.39,102.39,0,0,1,.58,10.93A101.23,101.23,0,0,1,101.12,201.92Z"/><path class="cls-2" d="M112.22,52.83H64.12a1.23,1.23,0,1,1,0-2.47h48.09a1.23,1.23,0,1,1,0,2.47Z"/><path class="cls-2" d="M99.89,60.23H64.12a1.23,1.23,0,0,1,0-2.47H99.89a1.23,1.23,0,0,1,0,2.47Z"/><path class="cls-2" d="M112.22,133H64.12a1.23,1.23,0,0,1,0-2.47h48.09a1.23,1.23,0,0,1,0,2.47Z"/><path class="cls-2" d="M99.89,140.38H64.12a1.23,1.23,0,0,1,0-2.47H99.89a1.23,1.23,0,0,1,0,2.47Z"/><path class="cls-2" d="M99.08,88.24c-2.35,0-3.38-1.81-4.28-3.41-1.06-1.88-2.06-3.65-5-3.65-2.72,0-4.32,1.8-5.87,3.54s-3.54,4-6.67,2.9a1.1,1.1,0,0,1-.71-1.46,1.28,1.28,0,0,1,1.59-.65c1.33.47,2.12-.24,3.87-2.21s3.88-4.37,7.78-4.37c4.46,0,6.05,2.81,7.21,4.87.86,1.52,1.32,2.19,2.09,2.19,1.39,0,3-1.84,4.35-3.47,1.57-1.84,3.05-3.58,5-3.58,2.47,0,2.84,2.38,3.08,4,.09.6.29,1.84.57,2h0c.62,0,1-.56,1.78-1.75.87-1.39,2.07-3.28,4.6-3.65a3.42,3.42,0,0,1,2.51.47c1.2.82,1.4,2.28,1.58,3.57a7.3,7.3,0,0,0,.28,1.39A12,12,0,0,0,124,84c1.45-1.16,3.64-2.91,6.94-2.36a1.14,1.14,0,0,1,1,1.31,1.22,1.22,0,0,1-1.43.91c-2.13-.35-3.52.76-4.87,1.84-1.1.88-2.24,1.8-3.65,1.38s-1.72-2-1.9-3.29c-.1-.76-.25-1.8-.61-2a1.09,1.09,0,0,0-.64,0c-1.27.19-2,1.13-2.85,2.55s-1.82,2.89-3.86,2.89c-2.47,0-2.84-2.38-3.08-4-.09-.6-.29-1.84-.57-2h0c-.77,0-2.1,1.56-3.07,2.71C103.65,85.93,101.68,88.24,99.08,88.24Z"/><path class="cls-2" d="M133.27,7.44a1.23,1.23,0,0,0,.4-2.4c-3-1-6.14-1.92-9.25-2.66a1.23,1.23,0,1,0-.57,2.4c3,.72,6.07,1.59,9,2.59A1.23,1.23,0,0,0,133.27,7.44Z"/><path class="cls-2" d="M40.69,34.33a1.23,1.23,0,0,0,2.47,0V21a98.11,98.11,0,0,1,50-18.51,1.23,1.23,0,0,0,1.13-1.33A1.25,1.25,0,0,0,93,0,101.17,101.17,0,0,0,9.76,144.19,1.23,1.23,0,1,0,12,143.13,98.74,98.74,0,0,1,28.79,33.71,99.4,99.4,0,0,1,40.69,22.84Z"/><path class="cls-2" d="M234.35,43.63,223.56,30.15a3.7,3.7,0,0,0-5.2-.58L207.77,38,152.91,81.93V16.82A98.88,98.88,0,0,1,183.16,46a1.23,1.23,0,0,0,2-1.37,101.32,101.32,0,0,0-32.66-30.89,1.23,1.23,0,0,0-.47-.28,101.31,101.31,0,0,0-10-5.14,1.23,1.23,0,1,0-1,2.25,98.8,98.8,0,0,1,9.38,4.77V83.66a1.17,1.17,0,0,0,0,.21L136.51,95l0,0a1.23,1.23,0,0,0-.27.33l0,.1a1.17,1.17,0,0,0-.08.17L131.58,111a3.7,3.7,0,0,0,3.55,4.74h.27l15-1.11v36.85a1.23,1.23,0,0,1-1.23,1.23H44.39a1.23,1.23,0,0,1-1.23-1.23V45.43a1.23,1.23,0,1,0-2.47,0V151.48a3.7,3.7,0,0,0,3.7,3.7H149.21a3.7,3.7,0,0,0,3.7-3.7v-37a1.21,1.21,0,0,0-.28-.75L223.17,57.3h0l10.59-8.47a3.7,3.7,0,0,0,.58-5.2Zm-99.12,69.65a1.21,1.21,0,0,1-1.05-.46,1.22,1.22,0,0,1-.22-1.12l3.85-13.07,10.92,13.66Zm97-66.38-9.63,7.7-9.08-11.35a1.23,1.23,0,1,0-1.93,1.54l.48.6,8.6,10.75-69.33,55.46L139,96.2,209.31,40,219.9,31.5a1.23,1.23,0,0,1,1.73.19l10.79,13.48A1.23,1.23,0,0,1,232.23,46.9Z"/><path class="cls-2" d="M200.92,65.63l-49.78,39.82a1.23,1.23,0,0,0,1.54,1.93l49.78-39.82a1.23,1.23,0,0,0-1.54-1.93Z"/><path class="cls-2" d="M207.31,62.1a1.24,1.24,0,0,0,1.73.19l5.27-4.22a1.23,1.23,0,1,0-1.54-1.93l-5.27,4.22A1.24,1.24,0,0,0,207.31,62.1Z"/><path class="cls-2" d="M143.46,108.66l-5.52.79a1.23,1.23,0,0,0,.17,2.45h.17l5.52-.79a1.23,1.23,0,0,0-.35-2.44Z"/><path class="cls-2" d="M60.47,45.68a1.23,1.23,0,0,1-.58-2.31A61.11,61.11,0,0,0,67,39.11,9.43,9.43,0,0,1,63.65,35c-1.51-3.58-.72-7.35.21-9.88a10.44,10.44,0,0,1,2.76-4.37A6,6,0,0,1,72.2,19.4c3.35,1,4.28,4.86,4,8.11a16.76,16.76,0,0,1-4.47,10.68h0c2.73,0,5-2.15,6.36-3.9a10.08,10.08,0,0,0,2.22-4.36,1.76,1.76,0,0,1,.25-1.16,1.23,1.23,0,0,1,2.23.31l.44.32h5.33a1.23,1.23,0,0,1,1.23,1.14,6.48,6.48,0,0,1-.33,2.1c-.22.78-.33,1.27-.14,1.55a.66.66,0,0,0,.44.22,1.94,1.94,0,0,0,1.33-.34A10.42,10.42,0,0,0,92,32.79c1.2-1.94,2.83-4.59,5.23-4,1.59.42,2.08,2,2.52,3.47.59,1.91,1,2.75,2.18,2.75a4,4,0,0,0,2.83-1.36,5.36,5.36,0,0,1,3.7-1.72c1.44,0,2.24,1.12,2.88,2s1.16,1.57,2,1.57H115c2.63,0,7.52.08,8.36-2.43a3,3,0,0,0-.82-3.11,3.7,3.7,0,0,0-3.45-1.14,1.23,1.23,0,1,1-.74-2.34,6.08,6.08,0,0,1,5.94,1.76,5.38,5.38,0,0,1,1.4,5.61C124.3,38.14,118.45,38.07,115,38h-1.71c-2.09,0-3.13-1.47-3.9-2.54-.34-.47-.76-1.06-1-1.06-.83,0-1.34.42-2.18,1.15a6.18,6.18,0,0,1-4.35,1.93c-3,0-3.86-2.64-4.39-4.39-.23-.77-.56-1.82-.9-1.91-.73-.23-2.09,2-2.67,2.94A7.15,7.15,0,0,1,92.4,36.1a4.24,4.24,0,0,1-3.09.76,2.92,2.92,0,0,1-2-1.18,3.89,3.89,0,0,1-.19-3.49l.09-.32h-4a3.86,3.86,0,0,1-.85-.1A14.19,14.19,0,0,1,80,35.81c-2.35,3-4.94,4.6-7.7,4.81a7.85,7.85,0,0,1-2.87-.33A54,54,0,0,1,61,45.54,1.24,1.24,0,0,1,60.47,45.68Zm10.25-23.8a4,4,0,0,0-2.51,1,7.89,7.89,0,0,0-2.07,3.37c-.78,2.13-1.46,5.26-.25,8.12A7,7,0,0,0,69,37.78a14.42,14.42,0,0,0,4.76-10.19c.06-.8.24-4.82-2.31-5.6A2.62,2.62,0,0,0,70.72,21.88Z"/><circle class="cls-2" cx="64.74" cy="85.51" r="3.08"/><circle class="cls-2" cx="64.74" cy="105.24" r="3.08"/></g></g></svg>