<svg xmlns="http://www.w3.org/2000/svg" viewBox="0 0 293.68 202.24"><defs><style>.cls-1{fill:#c17c74;}.cls-2{fill:#3f3f4f;}</style></defs><title>contact</title><g id="Layer_2" data-name="Layer 2"><g id="Layer_1-2" data-name="Layer 1"><path class="cls-1" d="M13.64,96.86a7.22,7.22,0,0,1-1.2-.1A16.26,16.26,0,0,1,.22,87.47a3.08,3.08,0,0,1,5.72-2.31,10.07,10.07,0,0,0,7.52,5.53c1,.17,3.1-5,4-7.22,2.44-6.14,5.48-13.79,12.78-13.79,6.77,0,10.58,5,13.95,9.49,2.4,3.17,4.66,6.17,7.45,6.57,2.2.31,3.35-1.16,5.7-5.75,1.78-3.5,4-7.85,8.66-7.85s7.65,4.14,10.4,8.14c2,2.94,4.13,6,6.6,6.81,5.79,1.93,10.62-.21,15.67-6.94a3.08,3.08,0,1,1,4.93,3.7C97,92.67,89.39,95.73,81,92.95c-4.43-1.48-7.24-5.56-9.73-9.16-1.77-2.57-3.77-5.48-5.33-5.48-.88,0-2.26,2.7-3.17,4.48-2,4-5.14,10-12.06,9-5.31-.76-8.6-5.11-11.5-9-3.31-4.38-5.57-7-9-7-3.12,0-5.21,5.26-7.05,9.9C21.08,91,18.74,96.86,13.64,96.86Z"/><path class="cls-1" d="M50.63,132.62a7.22,7.22,0,0,1-1.2-.1,16.26,16.26,0,0,1-12.22-9.29,3.08,3.08,0,0,1,5.72-2.31,10.07,10.07,0,0,0,7.52,5.53c1,.18,3.1-5,4-7.22,2.44-6.14,5.48-13.79,12.78-13.79,6.77,0,10.58,5,13.95,9.49,2.4,3.17,4.66,6.17,7.45,6.57,2.2.32,3.35-1.16,5.7-5.75,1.78-3.5,4-7.85,8.66-7.85s7.65,4.14,10.4,8.14c2,2.94,4.13,6,6.6,6.81,5.79,1.93,10.62-.21,15.67-6.94a3.08,3.08,0,0,1,4.93,3.7c-6.61,8.82-14.2,11.88-22.56,9.09-4.43-1.48-7.24-5.56-9.73-9.16-1.77-2.57-3.77-5.48-5.33-5.48-.88,0-2.26,2.7-3.17,4.48-2,4-5.14,10-12.06,9-5.31-.76-8.6-5.11-11.5-9-3.31-4.38-5.57-7-9-7-3.12,0-5.21,5.26-7.05,9.9C58.08,126.74,55.74,132.62,50.63,132.62Z"/><path class="cls-1" d="M293,54.05a1.24,1.24,0,0,0-1.28.1l-66,48-.13.11a5.39,5.39,0,0,1-2.18.26l-58-41.53s0,7,0,13v.28a1.23,1.23,0,0,0,.49,1l57.41,42.88a3.2,3.2,0,0,0,4.37,0l65.48-48.92a1.23,1.23,0,0,0,.49-1V55.15A1.23,1.23,0,0,0,293,54.05Z"/><path class="cls-2" d="M245.12,31.72a1.23,1.23,0,0,1-.87-.36A99.2,99.2,0,0,0,227.62,18a1.23,1.23,0,1,1,1.33-2.08,101.65,101.65,0,0,1,17,13.72,1.23,1.23,0,0,1-.87,2.11Z"/><path class="cls-2" d="M83.24,61.66a1.23,1.23,0,0,1-1.12-1.74A101.27,101.27,0,0,1,203.34,4.18a1.23,1.23,0,0,1-.7,2.37A98.8,98.8,0,0,0,84.37,60.93,1.23,1.23,0,0,1,83.24,61.66Z"/><path class="cls-2" d="M92.15,158.9a1.23,1.23,0,0,1-1-.53,101.16,101.16,0,0,1-9.81-17.89,1.23,1.23,0,0,1,2.27-1A98.51,98.51,0,0,0,93.16,157a1.23,1.23,0,0,1-1,1.93Z"/><path class="cls-2" d="M174.49,202.24a100.69,100.69,0,0,1-69.6-27.77,1.23,1.23,0,1,1,1.7-1.79,98.65,98.65,0,0,0,136.76-.92,1.23,1.23,0,1,1,1.72,1.77A100.57,100.57,0,0,1,174.49,202.24Z"/><path class="cls-2" d="M252.22,165.08a1.23,1.23,0,0,1-1-2c1.88-2.33,3.67-4.76,5.32-7.23a1.23,1.23,0,1,1,2.05,1.37c-1.69,2.53-3.52,5-5.45,7.41A1.23,1.23,0,0,1,252.22,165.08Z"/><path class="cls-2" d="M19.76,90.08a5.17,5.17,0,0,1-.84-.07A14.32,14.32,0,0,1,8.1,81.85a1.23,1.23,0,0,1,2.29-.92,11.84,11.84,0,0,0,8.92,6.65c2.54.43,4.21-3.85,6-8.36,2.35-5.92,5-12.62,11.06-12.62,5.85,0,9.37,4.65,12.47,8.76,2.63,3.49,5.12,6.78,8.67,7.28s5.36-2.33,7.61-6.74c1.72-3.36,3.49-6.84,7-6.84,3.7,0,6,3.55,8.47,7.32,2.23,3.42,4.54,7,7.76,7.5,4.27.71,8.84-1.83,11.29-4.48,1.67-1.81,2.46-3.71,2.11-5.1a1.23,1.23,0,0,1,2.39-.6c.56,2.23-.42,4.92-2.69,7.37-3,3.23-8.32,6.11-13.51,5.24-4.3-.72-7-4.9-9.43-8.58-2.08-3.19-4-6.2-6.4-6.2-2,0-3.32,2.55-4.82,5.49-2,3.95-4.52,8.86-10.15,8.06-4.55-.65-7.47-4.51-10.29-8.24-3-4-5.88-7.78-10.5-7.78-4.37,0-6.61,5.63-8.77,11.07C25.58,85.23,23.65,90.08,19.76,90.08Z"/><path class="cls-2" d="M56.75,125.84a5.17,5.17,0,0,1-.84-.07,14.32,14.32,0,0,1-10.81-8.16,1.23,1.23,0,0,1,2.29-.92,11.84,11.84,0,0,0,8.92,6.65c2.55.42,4.21-3.85,6-8.36,2.35-5.92,5-12.62,11.06-12.62,5.85,0,9.37,4.65,12.47,8.76,2.63,3.49,5.12,6.78,8.67,7.28s5.36-2.33,7.61-6.74c1.72-3.36,3.49-6.84,7-6.84,3.7,0,6,3.55,8.47,7.32,2.23,3.42,4.54,7,7.76,7.5,4.27.71,8.84-1.83,11.29-4.48,1.67-1.81,2.46-3.71,2.11-5.1a1.23,1.23,0,1,1,2.39-.6c.56,2.23-.42,4.92-2.69,7.37-3,3.23-8.32,6.11-13.51,5.24-4.3-.72-7-4.9-9.43-8.58-2.08-3.19-4-6.2-6.4-6.2-2,0-3.32,2.55-4.82,5.49-2,3.95-4.52,8.85-10.15,8.06-4.55-.65-7.47-4.51-10.29-8.24-3-4-5.88-7.78-10.5-7.78-4.37,0-6.61,5.63-8.77,11.07C62.57,121,60.65,125.84,56.75,125.84Z"/><path class="cls-2" d="M171.24,123.61a1.23,1.23,0,0,1-.88-2.1l16.74-16.88a1.23,1.23,0,1,1,1.75,1.74l-16.74,16.88A1.23,1.23,0,0,1,171.24,123.61Z"/><path class="cls-2" d="M286.28,77.81A1.23,1.23,0,0,0,285,79v52.33l-4.35-5.24a1.23,1.23,0,0,0-1.9,1.58l5.28,6.36a1.17,1.17,0,0,1,0,1.19.8.8,0,0,1-.67.51H161.87a.87.87,0,0,1-.81-.48.68.68,0,0,1,.06-.71L167.6,128a1.23,1.23,0,0,0-1.75-1.74l-6.55,6.6-.09.11a3.16,3.16,0,0,0-.37,3.36,3.29,3.29,0,0,0,2.61,1.81c.09,0,122,.06,122,.06h.81a3.25,3.25,0,0,0,3.25-3.25V79A1.23,1.23,0,0,0,286.28,77.81Z"/><path class="cls-2" d="M274.84,123.52a1.23,1.23,0,0,0,1.74-1.74l-16.13-16.13a1.23,1.23,0,1,0-1.74,1.74Z"/><path class="cls-2" d="M287.21,56.27a2.58,2.58,0,0,0-2.42-1.89H161.29A3.25,3.25,0,0,0,158,57.63v53.47a1.23,1.23,0,1,0,2.47,0V59.68l61.6,43.93a3.24,3.24,0,0,0,4.38,0L285,60.52v6.19a1.23,1.23,0,0,0,2.47,0V57.63A3.21,3.21,0,0,0,287.21,56.27ZM225,101.68l-.13.11a.78.78,0,0,1-1.09,0l-.14-.12L161.17,57.15a.78.78,0,0,1,.6-.28l122.5,0a.77.77,0,0,1,.66.39,2,2,0,0,1,.08.28Z"/><path class="cls-2" d="M159.27,116a1.23,1.23,0,0,0-1.23,1.23v4.93a1.23,1.23,0,1,0,2.47,0v-4.93A1.23,1.23,0,0,0,159.27,116Z"/></g></g></svg>