<svg xmlns="http://www.w3.org/2000/svg" viewBox="0 0 211.36 202.24"><defs><style>.cls-1{fill:#c17c74;}.cls-2{fill:#3f3f4f;}</style></defs><title>portfolio</title><g id="Layer_2" data-name="Layer 2"><g id="Layer_1-2" data-name="Layer 1"><polygon class="cls-1" points="128.74 169.06 69.55 169.06 72.02 155.5 127.51 155.5 128.74 169.06"/><path class="cls-2" d="M207.15,126.68a1.23,1.23,0,0,1-1.2-1.53,99.48,99.48,0,0,0,.34-46.66,1.23,1.23,0,0,1,2.4-.56,101.94,101.94,0,0,1-.35,47.82A1.23,1.23,0,0,1,207.15,126.68Z"/><path class="cls-2" d="M177.41,28.42a1.23,1.23,0,0,1-.83-.32,99.06,99.06,0,0,0-7.73-6.34,1.23,1.23,0,0,1,1.47-2,101.44,101.44,0,0,1,7.92,6.5,1.23,1.23,0,0,1-.83,2.15Z"/><path class="cls-2" d="M47.4,24.71a1.23,1.23,0,0,1-.78-2.19A101.35,101.35,0,0,1,110.24,0a100.28,100.28,0,0,1,42.51,9.34,1.23,1.23,0,0,1-1,2.24,97.82,97.82,0,0,0-41.48-9.12,98.87,98.87,0,0,0-62.07,22A1.23,1.23,0,0,1,47.4,24.71Z"/><path class="cls-2" d="M201,156.73h-4.93a1.23,1.23,0,0,1,0-2.47h3.7V37.12H2.47V97.54a1.23,1.23,0,0,1-2.47,0V35.88a1.23,1.23,0,0,1,1.23-1.23H201a1.23,1.23,0,0,1,1.23,1.23V155.5A1.23,1.23,0,0,1,201,156.73Z"/><path class="cls-2" d="M1.23,138.24A1.23,1.23,0,0,1,0,137V122.2a1.23,1.23,0,1,1,2.47,0V137A1.23,1.23,0,0,1,1.23,138.24Z"/><path class="cls-2" d="M187.44,180.16H144.28a1.23,1.23,0,0,1-1.23-1.23V96.31a1.23,1.23,0,0,1,1.23-1.23h43.16a1.23,1.23,0,0,1,1.23,1.23v82.62A1.23,1.23,0,0,1,187.44,180.16Zm-41.93-2.47h40.69V97.54H145.51Z"/><path class="cls-2" d="M162.7,186.15a1.24,1.24,0,0,0-1.69-.42,98.17,98.17,0,0,1-30.38,11.92l-6.74-40.91h13a1.23,1.23,0,1,0,0-2.47H2.47V144.4a1.23,1.23,0,0,0-2.47,0v11.1a1.23,1.23,0,0,0,1.23,1.23H77.38l-4.47,27.11a1.23,1.23,0,0,0,1,1.42l.2,0a1.23,1.23,0,0,0,1.22-1l4.53-27.51h41.5l6.82,41.38a98.6,98.6,0,0,1-94.08-34.25,1.23,1.23,0,1,0-1.9,1.57,101.16,101.16,0,0,0,130.06,22.4A1.24,1.24,0,0,0,162.7,186.15Z"/><rect class="cls-1" x="147.98" y="101.24" width="35.76" height="67.82" rx="2" ry="2"/><circle class="cls-2" cx="165.24" cy="174" r="2.47"/><circle class="cls-2" cx="9.87" cy="44.52" r="2.47"/><circle class="cls-2" cx="18.5" cy="44.52" r="2.47"/><circle class="cls-2" cx="27.13" cy="44.52" r="2.47"/><rect class="cls-1" x="17.26" y="58.08" width="40.69" height="12.33"/><ellipse class="cls-2" cx="150.44" cy="63.01" rx="32.06"/><path class="cls-2" d="M182.51,64.25H118.38a1.23,1.23,0,1,1,0-2.47h64.12a1.23,1.23,0,0,1,0,2.47Z"/><path class="cls-2" d="M91.75,108.64h0Z"/><path class="cls-2" d="M91.75,109.87H28.86a1.23,1.23,0,1,1,0-2.47H91.75a1.23,1.23,0,1,1,0,2.47Z"/><path class="cls-2" d="M30.09,116h0Z"/><path class="cls-2" d="M78.84,117.27h-50a1.23,1.23,0,0,1,0-2.47h50a1.23,1.23,0,0,1,0,2.47Z"/><path class="cls-2" d="M21.9,98.81A7.91,7.91,0,0,1,20,98.59a1.23,1.23,0,0,1,.59-2.38c1.73.43,5-.15,8.3-1.73A9,9,0,0,1,27.2,92c-1.54-3.49-.73-7.17.21-9.64a10.09,10.09,0,0,1,2.8-4.25,6.21,6.21,0,0,1,5.6-1.33c3.4,1,4.33,4.74,4.08,7.92-.38,4.69-3.69,8-6.4,9.94l0,0a5.82,5.82,0,0,0,2.34.33c2.6-.19,4.73-2.16,6.05-3.77A9.61,9.61,0,0,0,44.08,87a1.72,1.72,0,0,1,.27-1.17,1.23,1.23,0,0,1,2.2.27l.47.34h5a1.23,1.23,0,0,1,1.23,1.14,6.21,6.21,0,0,1-.35,2.17c-.22.76-.34,1.24-.16,1.49s1.25.34,1.9-.12a10.4,10.4,0,0,0,.91-1.3c1.25-1.93,3-4.58,5.41-4,1.65.42,2.17,2,2.63,3.48.62,1.95,1,2.74,2.29,2.74a4.25,4.25,0,0,0,3-1.37A5.65,5.65,0,0,1,72.74,89c1.48,0,2.31,1.12,3,2s1.22,1.57,2.13,1.57h1.31c2.68,0,7.63.09,8.48-2.35a2.69,2.69,0,0,0-.72-2.85,3.93,3.93,0,0,0-3.63-1.2,1.23,1.23,0,1,1-.72-2.35,6.37,6.37,0,0,1,6.12,1.85A5.12,5.12,0,0,1,90,91.08c-1.43,4.1-7.32,4-10.83,4H77.82c-2.15,0-3.24-1.46-4-2.54-.39-.52-.79-1.06-1.07-1.06a3.46,3.46,0,0,0-2.3,1.16,6.54,6.54,0,0,1-4.51,1.93c-3.16,0-4-2.65-4.56-4.4-.26-.8-.58-1.8-.95-1.9-.79-.22-2.17,1.92-2.82,2.94a7.22,7.22,0,0,1-1.54,2c-1.53,1.08-4,1.17-5.21-.43a3.87,3.87,0,0,1-.21-3.55l.07-.26H47a4,4,0,0,1-.88-.11,13.69,13.69,0,0,1-2.38,4c-2.34,2.85-5,4.46-7.77,4.66a8.59,8.59,0,0,1-5-1.24A20.46,20.46,0,0,1,21.9,98.81ZM34.35,78.93a4.15,4.15,0,0,0-2.57,1,7.58,7.58,0,0,0-2.09,3.26c-.78,2.05-1.47,5.07-.26,7.81a6.69,6.69,0,0,0,1.68,2.28q.48-.31.95-.64c2.3-1.65,5.1-4.41,5.41-8.18.06-.77.24-4.63-2.33-5.39A2.81,2.81,0,0,0,34.35,78.93Z"/><path class="cls-2" d="M130.71,140.7H102.35a1.23,1.23,0,0,1-1.23-1.23V127.14a1.23,1.23,0,0,1,1.23-1.23h28.36a1.23,1.23,0,0,1,1.23,1.23v12.33A1.23,1.23,0,0,1,130.71,140.7Zm-27.13-2.47h25.9v-9.87h-25.9Z"/><path class="cls-2" d="M93.72,140.7H65.36a1.23,1.23,0,0,1-1.23-1.23V127.14a1.23,1.23,0,0,1,1.23-1.23H93.72A1.23,1.23,0,0,1,95,127.14v12.33A1.23,1.23,0,0,1,93.72,140.7Zm-27.13-2.47h25.9v-9.87H66.59Z"/><path class="cls-2" d="M56.72,140.7H28.36a1.23,1.23,0,0,1-1.23-1.23V127.14a1.23,1.23,0,0,1,1.23-1.23H56.72A1.23,1.23,0,0,1,58,127.14v12.33A1.23,1.23,0,0,1,56.72,140.7ZM29.6,138.24h25.9v-9.87H29.6Z"/></g></g></svg>