<svg width="19" height="21" viewBox="0 0 19 21" fill="none" xmlns="http://www.w3.org/2000/svg">
<path d="M3.88298 16.653C3.58298 16.453 3.32498 16.198 3.02298 15.837C2.86622 15.6451 2.71089 15.4521 2.55698 15.258C2.09398 14.683 1.80198 14.418 1.49998 14.309C1.25028 14.2194 1.04641 14.0342 0.933237 13.7942C0.820059 13.5543 0.806837 13.2792 0.89648 13.0295C0.986123 12.7798 1.17129 12.5759 1.41124 12.4628C1.65119 12.3496 1.92628 12.3364 2.17598 12.426C2.92798 12.696 3.43698 13.161 4.12298 14.014C4.02898 13.897 4.46298 14.441 4.55598 14.553C4.74598 14.78 4.88598 14.918 4.99598 14.991C5.19998 15.128 5.58298 15.187 6.14598 15.131C6.16898 14.749 6.23998 14.378 6.34798 14.036C3.37998 13.31 1.69998 11.396 1.69998 7.64C1.69998 6.4 2.06998 5.284 2.75798 4.348C2.53998 3.454 2.57298 2.373 3.05998 1.156C3.11525 1.01834 3.20045 0.894691 3.30942 0.794029C3.41838 0.693366 3.54838 0.618208 3.68998 0.574C3.77098 0.55 3.81698 0.539 3.89798 0.527C4.70098 0.404 5.83498 0.697 7.31298 1.623C8.19378 1.41708 9.09543 1.31373 9.99998 1.315C10.912 1.315 11.818 1.419 12.684 1.623C14.161 0.69 15.297 0.397 16.106 0.527C16.191 0.54 16.263 0.557 16.324 0.577C16.4628 0.622777 16.5899 0.698434 16.6963 0.798643C16.8028 0.898852 16.8859 1.02118 16.94 1.157C17.427 2.373 17.46 3.454 17.242 4.347C17.933 5.283 18.3 6.392 18.3 7.64C18.3 11.397 16.626 13.305 13.658 14.032C13.783 14.447 13.848 14.911 13.848 15.412C13.8481 16.3173 13.8441 17.2227 13.836 18.128C14.0606 18.177 14.2614 18.3018 14.4047 18.4816C14.548 18.6613 14.625 18.8849 14.6228 19.1147C14.6206 19.3446 14.5392 19.5666 14.3925 19.7435C14.2457 19.9204 14.0425 20.0414 13.817 20.086C12.678 20.314 11.834 19.554 11.834 18.561L11.836 18.115L11.841 17.41C11.846 16.702 11.848 16.072 11.848 15.412C11.848 14.715 11.665 14.26 11.423 14.052C10.762 13.482 11.097 12.397 11.963 12.3C14.93 11.967 16.3 10.818 16.3 7.64C16.3 6.685 15.988 5.896 15.387 5.236C15.2604 5.09724 15.1754 4.92563 15.1418 4.74081C15.1082 4.55599 15.1273 4.36545 15.197 4.191C15.363 3.777 15.434 3.234 15.293 2.577L15.283 2.58C14.792 2.719 14.173 3.02 13.425 3.529C13.3044 3.61086 13.1673 3.66535 13.0234 3.68867C12.8795 3.71199 12.7323 3.70357 12.592 3.664C11.7479 3.43029 10.8758 3.31287 9.99998 3.315C9.10998 3.315 8.22798 3.434 7.40798 3.665C7.2682 3.70426 7.12155 3.7126 6.97821 3.68946C6.83488 3.66632 6.69831 3.61225 6.57798 3.531C5.82598 3.024 5.20398 2.724 4.70998 2.584C4.56598 3.237 4.63698 3.778 4.80198 4.191C4.87179 4.36536 4.89108 4.55585 4.85766 4.74066C4.82423 4.92547 4.73944 5.09714 4.61298 5.236C4.01598 5.89 3.69998 6.694 3.69998 7.64C3.69998 10.812 5.07098 11.968 8.02198 12.3C8.88698 12.397 9.22298 13.477 8.56598 14.048C8.37398 14.216 8.13698 14.78 8.13698 15.412V18.562C8.13698 19.548 7.30198 20.287 6.17698 20.09C5.94875 20.0499 5.74151 19.9318 5.5907 19.7559C5.43988 19.58 5.35484 19.3571 5.35012 19.1254C5.3454 18.8938 5.42128 18.6676 5.5648 18.4857C5.70832 18.3038 5.91057 18.1773 6.13698 18.128V17.138C5.22698 17.199 4.47498 17.05 3.88298 16.653Z" fill="#121212"/>
</svg>